<?xml version="1.0" encoding="UTF-8"?>
<svg id="logo" xmlns="http://www.w3.org/2000/svg" viewBox="0 0 956.88 603.06">
  <defs>
    <style>
      .cls-1 {
        fill: none;
        stroke: #fff;
        stroke-miterlimit: 10;
        stroke-width: 6px;
      }

      .cls-2 {
        fill: #fff;
      }
    </style>
  </defs>
  <path class="cls-2" d="M92.99,388.96c-2.38,8.36-3.58,12.54-5.96,20.87-.2,1-.99,1.17-1.99.93-8.9-2.12-13.35-3.3-22.25-5.91-2.64,9.75-5.29,19.51-7.95,29.25-1.99,7.42,1.99,10.09,6.36,11.39,5.56,1.65,9.34,1.8,12.52,1.78,1.39.02,2.19.92,1.79,2.05-2.07,7.44-3.1,11.15-5.17,18.56-.2.65-.8,1.18-1.79,1.08-8.15.35-16.5-.51-24.64-3.27-18.64-6.33-38.08-23.02-31.59-44.87,3.13-10.07,6.24-20.15,9.34-30.24-4.61-1.86-6.91-2.82-11.52-4.82-1.19-.52-1.79-1.48-1.59-2.44,2.38-7.84,3.58-11.77,5.96-19.65.2-.97.99-.98,1.99-.57,4.77,1.99,7.15,2.94,11.92,4.77,2.15-7.64,3.22-11.47,5.36-19.15.2-.98.99-1.03,1.99-.67,12.4,4.51,25,8.47,37.75,11.87,1.19.32,1.79,1.17,1.59,2.17-2.23,7.74-3.34,11.61-5.56,19.32,8.74,2.42,13.11,3.5,21.86,5.46,1.19.27,1.79,1.1,1.59,2.1Z"/>
  <path class="cls-2" d="M168.69,398.97c.2-1.04.99-1.34,1.99-1.28,12.83.72,25.69.98,38.55.83,1.19-.01,1.79.68,1.59,1.73-4.09,15.12-8.2,30.24-12.32,45.36-3.5,13.83-7.01,27.65-10.53,41.48-.2,1.04-.99,1.37-1.99,1.35-12.21-.34-24.4-1.09-36.56-2.26-1.19-.12-1.79-.88-1.59-1.91.56-1.83.83-2.75,1.39-4.59-6.95,4.4-15.5,6.57-25.63,5.05-22.37-3.36-37.96-23.55-37.75-45.6.27-28.63,24.32-49.65,53.05-45.94,10.08,1.3,21.02,4.92,27.82,13.19.79-2.96,1.19-4.44,1.99-7.4ZM140.07,463.82c14.67,1.2,20.37-18.31,20.47-30.24.08-9.72-4.58-15.51-12.72-16.34-15.19-1.55-20.11,16.86-20.27,28.34-.13,9.32,3.85,17.53,12.52,18.24Z"/>
  <path class="cls-2" d="M317.9,440.32c-.2.9-.99,1.55-1.99,1.7-22.74,3.3-45.45,5.93-68.35,7.74.2,11.36,5.76,15.54,13.71,14.83,7.35-.65,11.72-4.8,13.51-9.19.4-.92,1.19-1.35,2.19-1.46,12.02-1.31,24.01-2.87,35.96-4.65,1.19-.18,1.79.43,1.59,1.51-6.56,23.42-32.07,35.28-54.24,37.49-25.44,2.53-52.94-10.84-53.45-39.2-.6-33.22,32.76-53.51,62.19-56.26,29.4-2.75,58.41,13.97,48.88,47.49ZM278.36,427.37c.4-6.87-3.18-11.85-12.12-11-7.95.76-13.11,5.34-16.09,13.61,9.41-.68,18.84-1.55,28.21-2.6Z"/>
  <path class="cls-2" d="M396.78,375.1c.6-.65,1.39-1.17,2.19-1.34,13.4-2.85,26.78-5.83,40.14-8.86,1.59-.36,1.99.6.8,1.74-12.03,12.85-24.08,25.67-36.16,38.47,6.09,17.33,12.18,34.66,18.28,51.98.4,1.14-.4,1.84-1.59,2.1-14.15,3.11-28.32,6.13-42.52,9.03-.99.2-1.79,0-1.99-1-2.3-8.43-3.46-12.64-5.76-21.08-.64-2.46-.95-3.7-1.59-6.16-3.18,3.63-4.77,5.44-7.95,9.05-2.15,8.88-3.22,13.31-5.36,22.18-.2,1.09-.99,1.58-1.99,1.77-12.48,2.3-25,4.43-37.55,6.33-1.19.18-1.79-.43-1.59-1.51,5.57-20.88,11.14-41.76,16.69-62.64,4.91-20.61,9.81-41.23,14.7-61.84.2-1.09.99-1.58,1.99-1.76,12.55-2.26,25.06-4.69,37.55-7.26,1.19-.24,1.79.33,1.59,1.42-5.23,20.19-10.46,40.37-15.7,60.55,8.64-10.37,17.25-20.76,25.83-31.18Z"/>
  <path class="cls-2" d="M421.61,419.39c-.43-33.76,31.88-60.13,62.19-67.08,22.46-5.15,52.07,1.5,51.26,29.93-.94,32.78-31.86,60.06-61.99,67.21-23.31,5.53-51.1-1.84-51.46-30.06ZM493.93,390.02c.05-11.32-4.74-15.49-11.92-13.68-14.31,3.6-19.12,22.57-19.27,35.43-.14,11.58,4.89,15.58,11.72,13.73,14.03-3.8,19.41-22.03,19.47-35.48Z"/>
  <path class="cls-2" d="M645.93,351.65c11.45-1.61,22.88-3.08,34.37-4.4,1.19-.13,1.99.49,1.39,1.6-5.69,14.25-14.5,25.92-24.44,37.42,5.72,8.05,8.58,12.09,14.31,20.23.6.98.2,1.9-1.19,2.07-14.15,1.79-28.24,3.81-42.32,6.05-.99.16-1.59-.09-1.99-.72-.72-1-1.07-1.5-1.79-2.5-11.94,5.82-22.72,10.04-35.37,12.9-18.67,4.22-50.9,2.58-50.47-24.25.38-23.77,22.91-39.69,41.92-49.81-2.78-5.39-4.99-11.79-4.97-18.59.09-24.52,26.83-38.73,47.88-42.37,15.54-2.68,42.99-.22,42.72,21.51-.24,18.86-21.78,29.91-36.36,37.09,4.13,5.63,6.2,8.45,10.33,14.12,1.39-2.84,2.78-5.67,3.97-8.82.2-.9.99-1.37,1.99-1.52ZM610.56,392.94c-5.87-8.13-11.77-16.25-17.68-24.36-7.55,5.82-12.52,12.08-12.52,19.6,0,9.27,7.55,11.25,16.89,9.48,4.57-.86,9.14-2.58,13.31-4.73ZM618.11,330.91c8.34-4.94,13.91-10.01,13.91-15.96,0-4.9-3.77-6.75-8.54-5.95-7.35,1.24-9.54,7.24-9.54,10.74,0,2.62,1.39,6.4,4.17,11.17Z"/>
  <path class="cls-2" d="M683.88,367.69c-.51-33.17,31.41-56.28,62.19-56.8,21.98-.37,46.94,11.06,47.49,36.08,0,1.05-.79,1.52-1.79,1.45-11.97-.79-23.97-1.19-35.96-1.21-.99,0-1.79-.53-1.79-1.58-.6-7.87-5.91-11.49-10.93-11.09-13.4,1.09-17.95,19.8-18.08,31.57-.13,11.59,4.17,16.23,10.93,16.02,7.55-.23,12.52-6.03,14.5-12.17.2-.88.99-1.41,1.99-1.41,11.99-.05,23.99.27,35.96.99,1.19.07,1.79.63,1.59,1.5-5.98,24.42-32.96,33.82-55.24,34.75-24.47,1.02-50.44-10.44-50.86-38.11Z"/>
  <path class="cls-2" d="M796.73,365.22c.11-32,31.94-51.16,62.19-44.12,25.53,5.95,51.06,27.57,51.26,55.49.24,33.14-35.61,41.53-61.99,37.06-25.23-4.27-51.55-20.59-51.46-48.43ZM869.05,363.4c-.16-11.21-4.8-17.87-11.92-19.04-14.17-2.34-19.17,16.28-19.27,27.45-.11,11.61,4.77,17.43,11.72,18.48,13.86,2.11,19.63-15.48,19.47-26.89Z"/>
  <path class="cls-2" d="M953.9,413.76c-3.1,10.35-4.65,15.54-7.75,25.95-.2.96-.99.97-1.99.54-12.56-5.37-25.35-10.17-38.35-14.37-1.19-.39-1.79-1.27-1.59-2.26,3.1-10.77,4.65-16.14,7.75-26.84.2-.98.99-1.06,1.99-.72,13.03,4.49,25.72,9.72,38.35,15.22,1.19.54,1.79,1.51,1.59,2.47Z"/>
  <path class="cls-2" d="M0,467.79v-8.74c315.89,140.47,640.98-140.47,956.88,0v8.74c-315.9-140.47-640.98,140.47-956.88,0Z"/>
  <g>
    <path class="cls-2" d="M503.23,492.29c16.2-6.65,32.5-12.65,49.14-18.1.09,5.29.13,7.93.21,13.22-12.6,3.38-25.09,7.15-37.45,11.3.05,7.8.07,11.7.12,19.5,11.57-2.69,23.2-5.15,34.88-7.37.08,4.94.12,7.42.19,12.36-11.7,1.7-23.37,3.58-35,5.65.05,8.72.08,13.08.14,21.79,12.93-.85,25.86-1.62,38.8-2.3.09,5.3.13,7.95.21,13.25-17.08.13-34.15.27-51.23.43,0-23.24,0-46.48,0-69.72Z"/>
    <path class="cls-2" d="M572.7,530.47c.06,3.56.57,6.56,1.53,9.02.96,2.46,2.28,4.47,3.94,6.02,1.67,1.55,3.57,2.67,5.72,3.34,2.14.68,4.46.98,6.95.9,2.69-.09,4.98-.6,6.86-1.54,1.89-.94,3.41-2.14,4.57-3.59,1.16-1.45,1.98-3.11,2.48-4.96.49-1.86.73-3.73.69-5.61-.06-3.86-.72-6.66-1.97-8.39-1.25-1.73-2.6-2.89-4.05-3.51-2.52-1.07-5.44-2.01-8.77-2.79-3.33-.78-7.46-1.83-12.31-2.93-3.01-.68-5.55-1.7-7.57-3.09-2.02-1.39-3.64-3-4.84-4.84-1.21-1.84-2.08-3.85-2.6-6.04-.53-2.19-.81-4.45-.85-6.81-.08-4.55.59-8.66,1.99-12.38,1.4-3.72,3.29-7.03,5.66-9.92,2.37-2.89,5.07-5.31,8.12-7.23,3.05-1.92,6.14-3.29,9.28-4.08,3.67-.92,7.14-1.09,10.41-.48,3.27.61,6.17,2.05,8.69,4.3,2.52,2.25,4.53,5.31,6.05,9.13,1.52,3.82,2.32,8.45,2.4,13.82-4.94.68-7.41,1.04-12.34,1.8-.44-6.41-2.06-10.72-4.87-12.84-2.8-2.12-6.34-2.7-10.59-1.77-1.44.31-2.91.84-4.41,1.58-1.5.74-2.86,1.72-4.08,2.93-1.22,1.21-2.23,2.7-3.02,4.45-.79,1.76-1.16,3.81-1.12,6.17.06,3.33.87,5.77,2.44,7.39,1.57,1.62,3.6,2.72,6.11,3.3.26.05,1.3.26,3.11.66,1.81.4,3.84.85,6.09,1.36,2.24.51,4.44,1.02,6.59,1.54,2.15.51,3.68.92,4.61,1.18,2.32.76,4.35,1.95,6.09,3.57,1.74,1.62,3.21,3.56,4.39,5.8,1.19,2.24,2.08,4.7,2.69,7.35.6,2.65.92,5.34.97,8.03.09,5.78-.64,10.76-2.18,14.89-1.54,4.13-3.61,7.49-6.19,10.09-2.58,2.6-5.54,4.47-8.86,5.65-3.33,1.17-6.73,1.74-10.2,1.74-4,0-7.79-.68-11.35-1.99-3.56-1.3-6.68-3.27-9.35-5.88-2.67-2.6-4.82-5.9-6.46-9.9-1.64-4-2.54-8.71-2.7-14.22,4.9-.51,7.35-.76,12.25-1.23Z"/>
    <path class="cls-2" d="M620.64,457.27c19.18-3.27,38.3-5.73,57.67-7.44.05,6.73.08,10.09.13,16.82-9.08.59-13.61.97-22.66,1.88.34,30.85.68,61.7,1.02,92.55-4.92.01-7.38.02-12.3.04-.39-30.4-.78-60.81-1.17-91.21-9,1.08-13.49,1.7-22.44,3.09-.1-6.29-.15-9.43-.24-15.72Z"/>
    <path class="cls-2" d="M675.53,540.06c5.49-.1,8.24-.14,13.73-.2.05,8.46.07,12.69.12,21.15-5.47,0-8.21.01-13.68.02-.07-8.39-.1-12.58-.17-20.97Z"/>
    <path class="cls-2" d="M774.53,561.04c-15.69-.04-31.37-.06-47.06-.06.08-9.16,1.46-17.16,4.18-23.99,2.72-6.83,6.43-12.74,11.14-17.71,2.26-2.59,4.62-5.08,7.08-7.49,2.46-2.4,4.73-4.97,6.8-7.72,2.07-2.74,3.78-5.72,5.13-8.94,1.35-3.21,2.11-6.97,2.17-11.19.03-1.95-.12-4.08-.4-6.33-.28-2.25-.85-4.36-1.7-6.33-.85-1.97-2.04-3.66-3.57-5.05-1.52-1.39-3.52-2.15-5.99-2.27-2.27-.11-4.16.52-5.67,1.87-1.51,1.36-2.72,3.26-3.63,5.69-.91,2.44-1.59,5.33-2.03,8.68-.44,3.35-.71,6.97-.79,10.85-4.54-.1-6.82-.13-11.36-.17,0-6.1.53-11.76,1.57-16.95,1.04-5.19,2.6-9.67,4.68-13.41,2.08-3.74,4.61-6.64,7.6-8.68,2.98-2.04,6.45-2.95,10.4-2.73,4.28.24,7.85,1.59,10.71,3.99,2.85,2.39,5.15,5.33,6.89,8.77,1.74,3.45,2.95,7.13,3.65,11.05.7,3.92,1.03,7.62.99,11.12-.04,4.32-.51,8.2-1.4,11.65-.89,3.45-2.08,6.61-3.56,9.49-1.48,2.88-3.16,5.53-5.03,7.95-1.87,2.42-3.81,4.7-5.8,6.83-2,2.13-3.99,4.17-5.98,6.12-1.99,1.95-3.83,3.91-5.53,5.87-1.69,1.97-3.17,4.02-4.43,6.16-1.26,2.14-2.13,4.42-2.59,6.83,11.22.09,22.44.21,33.66.37-.06,6.3-.09,9.45-.15,15.74Z"/>
    <path class="cls-2" d="M807.21,454.85c4.98.77,9.01,3.18,12.1,7.07,3.09,3.89,5.47,8.56,7.13,13.98,1.67,5.42,2.76,11.22,3.29,17.42.53,6.2.74,12.14.65,17.86-.09,5.72-.5,11.6-1.23,17.67-.72,6.07-2,11.63-3.82,16.72-1.82,5.09-4.32,9.29-7.49,12.62-3.17,3.33-7.21,5.03-12.13,5.03-4.92,0-8.92-1.72-11.99-5.23-3.08-3.5-5.46-7.99-7.14-13.47-1.68-5.48-2.8-11.51-3.36-18.06-.56-6.55-.8-12.91-.74-19.04.06-6.13.44-12.45,1.14-18.93.7-6.48,1.96-12.38,3.78-17.64,1.82-5.26,4.33-9.46,7.53-12.53,3.2-3.08,7.3-4.23,12.27-3.46ZM805.9,549.08c2.43.05,4.48-.97,6.16-3.04,1.67-2.07,3.01-4.86,4.02-8.39,1.01-3.53,1.74-7.66,2.21-12.4.47-4.75.74-9.79.82-15.14.08-5.35-.04-10.4-.36-15.17-.32-4.77-.94-9.02-1.84-12.76-.9-3.74-2.17-6.79-3.79-9.14-1.62-2.35-3.66-3.7-6.11-4.04-2.52-.34-4.61.46-6.26,2.42-1.65,1.96-2.98,4.75-3.99,8.37-1.01,3.62-1.74,7.87-2.2,12.72-.46,4.86-.72,10.07-.79,15.62-.07,5.55.07,10.81.4,15.77.34,4.96.96,9.3,1.87,13,.91,3.7,2.15,6.65,3.74,8.84,1.58,2.19,3.62,3.3,6.12,3.35Z"/>
    <path class="cls-2" d="M883.96,561.56c-15.68-.11-31.35-.2-47.03-.28.2-8.17,1.7-15.29,4.5-21.21,2.79-5.91,6.56-10.87,11.29-14.79,2.27-2.06,4.63-4,7.09-5.81,2.46-1.81,4.72-3.76,6.79-5.84,2.07-2.08,3.78-4.36,5.13-6.86,1.35-2.5,2.12-5.51,2.22-8.98.04-1.61-.09-3.4-.35-5.31-.26-1.91-.8-3.76-1.62-5.54-.82-1.79-1.97-3.41-3.45-4.85-1.48-1.44-3.43-2.45-5.84-3-2.22-.51-4.08-.31-5.57.59-1.49.9-2.7,2.34-3.62,4.29-.92,1.96-1.62,4.37-2.1,7.21-.48,2.84-.78,5.96-.9,9.33-4.48-.67-6.73-1-11.22-1.61.09-5.43.69-10.4,1.78-14.85s2.69-8.15,4.79-11.06c2.09-2.91,4.61-4.96,7.56-6.13,2.95-1.17,6.35-1.24,10.2-.23,4.18,1.1,7.64,2.99,10.4,5.56,2.76,2.57,4.98,5.45,6.65,8.6,1.67,3.15,2.84,6.36,3.5,9.65.66,3.29.97,6.33.92,9.14-.06,3.48-.53,6.54-1.42,9.21-.89,2.67-2.08,5.09-3.55,7.27-1.47,2.18-3.15,4.17-5.01,5.99-1.86,1.82-3.79,3.54-5.79,5.15-1.99,1.62-3.99,3.18-5.98,4.69-1.99,1.51-3.84,3.06-5.54,4.64-1.7,1.59-3.19,3.28-4.47,5.07-1.28,1.79-2.17,3.73-2.66,5.81,11.17.46,22.34.95,33.51,1.48-.08,5.07-.13,7.6-.21,12.67Z"/>
    <path class="cls-2" d="M915.96,483.18c4.78,1.77,8.65,4.54,11.65,8.07,3,3.53,5.33,7.37,7,11.51,1.67,4.14,2.81,8.36,3.42,12.71.6,4.36.91,8.46.91,12.36s-.31,7.88-.92,11.98c-.62,4.11-1.79,7.84-3.52,11.29-1.74,3.45-4.17,6.33-7.29,8.66-3.13,2.33-7.15,3.58-12.07,3.57-4.92,0-8.92-1.3-12-4.01-3.08-2.72-5.45-6.26-7.12-10.61-1.67-4.35-2.77-9.16-3.31-14.38-.54-5.21-.77-10.27-.69-15.12.08-4.85.46-9.8,1.16-14.82.7-5.02,1.93-9.46,3.71-13.24,1.77-3.78,4.21-6.53,7.29-8.19,3.08-1.66,7.02-1.56,11.8.21ZM915.23,552.88c2.42.12,4.45-.57,6.09-2,1.64-1.43,2.95-3.38,3.91-5.85.96-2.47,1.64-5.36,2.05-8.71.41-3.34.62-6.9.64-10.7.02-3.8-.15-7.42-.52-10.88-.36-3.46-1-6.61-1.91-9.48-.91-2.86-2.15-5.33-3.74-7.37-1.58-2.05-3.55-3.48-5.92-4.25-2.43-.78-4.44-.62-6.03.53-1.59,1.15-2.88,3.02-3.85,5.61-.97,2.59-1.68,5.72-2.12,9.38-.44,3.66-.69,7.63-.75,11.89-.06,4.26.08,8.32.42,12.15.34,3.83.96,7.2,1.87,10.07.91,2.87,2.15,5.17,3.73,6.88,1.58,1.71,3.61,2.6,6.1,2.72Z"/>
  </g>
  <path class="cls-2" d="M477.97,507.05c-159.35,34.92-318.7,69.26-475.77-.58v8.74c158.13,70.32,318.56,35.04,479-.12-1.23-2.63-2.31-5.32-3.23-8.04Z"/>
  <path class="cls-2" d="M477.97,554.35c-159.35,34.92-318.7,69.26-475.77-.58v8.74c158.13,70.32,318.56,35.04,479-.12-1.23-2.63-2.31-5.32-3.23-8.04Z"/>
  <path class="cls-2" d="M477.97,310.4c-159.35,34.92-318.7,69.26-475.77-.58v8.74c158.13,70.32,318.56,35.04,479-.12-1.23-2.63-2.31-5.32-3.23-8.04Z"/>
  <path class="cls-2" d="M309.34,348.34l-106.98-251.71-98.09,251.62-9.55-2.34L197.43,82.44c1.42-3.64,7.89-3.7,9.42-.09l111.97,263.46-9.48,2.53Z"/>
  <rect class="cls-2" x="197.16" y="83.73" width="10" height="270.3"/>
  <polygon class="cls-2" points="478.83 318.96 477.06 310.6 523.3 300.29 525.16 309.1 478.83 318.96"/>
  <line class="cls-1" x1="197.16" y1="109.97" x2="148.34" y2="351.71"/>
  <line class="cls-1" x1="263.29" y1="351.71" x2="206.77" y2="106.98"/>
  <g>
    <line class="cls-1" x1="124.52" y1="286.08" x2="202.16" y2="354.03"/>
    <line class="cls-1" x1="202.16" y1="286.08" x2="100.02" y2="345.25"/>
    <line class="cls-1" x1="124.52" y1="283.63" x2="202.16" y2="240.62"/>
    <line class="cls-1" x1="202.16" y1="283.63" x2="140.95" y2="240.62"/>
    <line class="cls-1" x1="142.29" y1="236.69" x2="202.16" y2="203.26"/>
    <line class="cls-1" x1="202.16" y1="237.94" x2="154.71" y2="200.84"/>
    <line class="cls-1" x1="202.16" y1="199.3" x2="168.12" y2="167.76"/>
    <line class="cls-1" x1="158.17" y1="195.42" x2="202.16" y2="169.72"/>
    <line class="cls-1" x1="202.16" y1="166.53" x2="178.44" y2="143.22"/>
    <line class="cls-1" x1="171.56" y1="162.46" x2="203.22" y2="142.3"/>
  </g>
  <g>
    <line class="cls-1" x1="288.72" y1="285.82" x2="202.34" y2="353.77"/>
    <line class="cls-1" x1="202.34" y1="285.82" x2="315.98" y2="344.99"/>
    <line class="cls-1" x1="288.72" y1="283.38" x2="202.34" y2="240.36"/>
    <line class="cls-1" x1="202.34" y1="283.38" x2="270.44" y2="240.36"/>
    <line class="cls-1" x1="268.95" y1="236.43" x2="202.34" y2="203"/>
    <line class="cls-1" x1="202.34" y1="237.68" x2="255.13" y2="200.58"/>
    <line class="cls-1" x1="202.34" y1="199.05" x2="240.21" y2="167.5"/>
    <line class="cls-1" x1="251.28" y1="195.16" x2="202.34" y2="169.46"/>
    <line class="cls-1" x1="202.34" y1="166.28" x2="228.73" y2="142.96"/>
    <line class="cls-1" x1="236.39" y1="162.21" x2="201.16" y2="142.04"/>
  </g>
  <path class="cls-2" d="M261.22,172.67c1.36,2.97,5.22,3.79,7.64,1.6,20.29-18.3,33.04-44.8,33.04-74.27C301.89,44.77,257.12,0,201.89,0h.89c-55.23,0-100,44.77-100,100,0,29.46,12.74,55.94,33,74.24,2.43,2.2,6.31,1.36,7.65-1.63l48.43-107.94c3.86-8.61,16.06-8.65,19.98-.07l49.37,108.06Z"/>
</svg>